# xmcd
#
# Track frame offsets:
#	150
#	24755
#	49662
#	76367
#	106712
#	131992
#	157640
#	176032
#
# Disc length: 2811 seconds
#
# Revision: 1
# Processed by: cddbd v1.4PL0 Copyright (c) Steve Scherf et al.
# Submitted via: audiograbber 1.82.01
#
DISCID=530af908
DTITLE=Hany Shaker - Leh Ma Nihlamshi
DYEAR=1900
DGENRE=
TTITLE0=Leh Ma Nihlamchi
TTITLE1=Min Hak Min Fina
TTITLE2=Kol Elli Tetmany
TTITLE3=Ghalta
TTITLE4=Ma Tloumchi
TTITLE5=Kan Wa3ed
TTITLE6=El Wa2et Mich Waatak
TTITLE7=Enta El Sabab
EXTD=
EXTT0=
EXTT1=
EXTT2=
EXTT3=
EXTT4=
EXTT5=
EXTT6=
EXTT7=
PLAYORDER=
